<svg xmlns="http://www.w3.org/2000/svg" viewBox="0 0 724.01 280.68"><defs><style>.cls-1{fill:#fa5f07;}.cls-2{fill:none;stroke:#000;stroke-miterlimit:10;stroke-width:0.5px;}</style></defs><title>Asset 2</title><g id="Layer_2" data-name="Layer 2"><g id="Layer_1-2" data-name="Layer 1"><path d="M0,4.31c0-.92.62-1.37,1.85-1.37q13.46,0,21.7-.4T36.41,1.47C39.5,1,41.68.65,43,.39a16.2,16.2,0,0,1,3-.39,3.48,3.48,0,0,1,3.36,2.54A125.43,125.43,0,0,0,55.17,13.9q4.2,7.44,7.9,13.5l83.09,142.3L216,43.06Q227.79,21,233.08,10.47T243.08,0q2,0,7.59.39t12.14,1.08q6.58.69,12.49,1.07c3.93.27,6.58.4,7.93.4s2,.58,2,1.76-.68,1.76-2,1.76h-5.28a23.37,23.37,0,0,0-10.14,1.86q-3.84,1.86-5.71,11.45t-2.39,29.85q-.51,20.25-.51,57.05v70.27q0,36.81.51,57.06t2.39,29.85q1.88,9.58,5.71,11.45a23.37,23.37,0,0,0,10.14,1.86h5.28c1.36,0,2,.58,2,1.76s-.68,1.76-2,1.76c-2.61,0-5.75-.06-9.44-.19l-11.13-.4c-3.75-.12-7.14-.26-10.18-.39s-5.12-.19-6.23-.19q-2,0-6.81.19c-3.21.13-6.75.27-10.61.39l-11.68.4q-5.88.19-9.41.19c-1.58,0-2.36-.59-2.36-1.76s.68-1.76,2-1.76h7a23.35,23.35,0,0,0,10.13-1.86q3.84-1.86,5.79-11.45T232.77,234q.51-20.26.51-57.06V35q0-11.55-2.94-7.25T219.83,45.41l-81.24,148c-.9,1.83-2,2.74-3.2,2.74h-3c-.9,0-1.8-.91-2.69-2.74L34.82,32.49l-.34,144.45q0,24.87,1.43,41.69a210.66,210.66,0,0,0,4,28Q42.38,257.78,46,264t7.82,9a21.71,21.71,0,0,0,8.49,3.42,52.47,52.47,0,0,0,8.33.69h4.88c1.12,0,1.68.58,1.68,1.76s-.56,1.76-1.68,1.76H64.84q-6.81,0-13.88-.39t-13-.59c-3.92-.13-6.56-.19-7.9-.19q-3.87,0-12.28.58t-15.64.59a1.8,1.8,0,0,1-1.94-1.76c-.17-1.18.59-1.76,2.27-1.76h2a22.15,22.15,0,0,0,10.51-2.45q4.64-2.44,7.91-12.23t5.21-29.85q1.93-20.07,1.94-55.69V139.26q0-20.44.16-40.12t.17-35.92V38.56q0-11.16-4.54-17.23A77.31,77.31,0,0,0,15.73,10.86,18.52,18.52,0,0,0,3.53,6.07H1.85C.62,6.07,0,5.48,0,4.31Z"/><path d="M275.91,186.33A111.87,111.87,0,0,1,284,144.19a122,122,0,0,1,21.22-35.13,103.59,103.59,0,0,1,29.94-23.89,73,73,0,0,1,34.39-8.83q18.25,0,30,5.63T417.88,95.8a43.48,43.48,0,0,1,8.72,17.36,56.09,56.09,0,0,1,1.65,12.6,31.62,31.62,0,0,1-.17,3.32,16.92,16.92,0,0,1-3.54,8.81q-2.88,3.53-10.61,3.52H298.77a171.07,171.07,0,0,0-2.63,30.33,89.47,89.47,0,0,0,6.34,33.78,86.32,86.32,0,0,0,17.27,27.36,80.66,80.66,0,0,0,25.83,18.33,76.85,76.85,0,0,0,32,6.72,70,70,0,0,0,28-5.38,75.23,75.23,0,0,0,22.79-15.35,114.08,114.08,0,0,0,18.51-23.9,227.46,227.46,0,0,0,15.3-31.77c.87-2.31,1.75-3.26,2.63-2.88.43.13.6.51.49,1.15a6.76,6.76,0,0,1-.66,2.5,257.81,257.81,0,0,1-16.69,35.8,154.25,154.25,0,0,1-23.12,31.48,118.09,118.09,0,0,1-29.12,22.36,72.73,72.73,0,0,1-35.2,8.64,84.88,84.88,0,0,1-35-7A77.24,77.24,0,0,1,298.69,254a86,86,0,0,1-16.94-29.94A117.52,117.52,0,0,1,275.91,186.33Zm23.84-47.83c31-.23,54.12-.59,63.59-.77,0,0,2.45,0,20.09-1,0,0,4.12-.22,8.07-.79h0c.25,0,1-.16,2-.39,2.53-.6,6.34-1.46,8.45-4,1.51-1.85,1.67-3.9,1.88-6.66a24,24,0,0,0-1.69-10.34,32,32,0,0,0-6.8-10.91h0a55,55,0,0,0-14.27-10,57.2,57.2,0,0,0-16.14-5,61.29,61.29,0,0,0-28.6,2.49C323,95.68,306.34,112.73,299.75,138.5Z"/><path d="M436.72,278.69c0-1.18.71-1.76,2.13-1.76a41.8,41.8,0,0,0,10.56-1.08,9.82,9.82,0,0,0,6.2-5.48q2.22-4.41,2.93-13.21t.71-24.47V129.34a27.77,27.77,0,0,0-5.45-16.44A115.73,115.73,0,0,0,442,98.81c-1-1-1-1.83,0-2.35a79.77,79.77,0,0,0,13.12-6.75A62.74,62.74,0,0,0,468,79.63q.74-.78,2.22.39,5,4.89,10.09,15.07a61.16,61.16,0,0,1,6.21,21.73Q489.77,103.5,496.66,96A110.49,110.49,0,0,1,511,82.76a34.91,34.91,0,0,1,20.53-6.66h.73A39.42,39.42,0,0,1,544,77.67c3.33,1,5,2.87,5,5.48a22.89,22.89,0,0,1-1.09,6.07,23.15,23.15,0,0,1-1.43,3.66,23.91,23.91,0,0,1-1.93,3.19,17.91,17.91,0,0,1-3.69,4.12,11.74,11.74,0,0,1-7.82,1.94c-1.92-.24-17.72-2.17-29,1.12-1.94.57-8.51,2.39-12.2,7.2-1.14,1.49-3.17,4-3.9,11.65q-.74,7.64-.73,20.36V276.93h22.21c1.42,0,2.13.58,2.13,1.76s-.72,1.76-2.16,1.76c-.72,0-2.55-.07-5.49-.2s-6.2-.19-9.8-.19-7-.07-10.34-.2-5.67-.19-7.11-.19-3.83.06-7,.19-6.63.2-10.27.2-7.27.06-10.91.19-6.83.2-9.57.2C437.44,280.45,436.72,279.86,436.72,278.69Z"/><path d="M552.87,101.33a1.8,1.8,0,0,1-.16-.62,2,2,0,0,1,1.49-1.86,82.27,82.27,0,0,0,22.79-9,174.1,174.1,0,0,0,19.64-13.65c.44-.52,1.56-.46,3.37.19s2.72,1.5,2.72,2.54V236.64q0,12.92.5,20.85t2.56,12.33a10.74,10.74,0,0,0,6.13,5.87,33.94,33.94,0,0,0,11.18,1.47c1.33,0,2,.58,2,1.76s-.66,1.76-2,1.76q-3.81,0-8.53-.19c-3.14-.13-6.29-.2-9.43-.2s-6-.06-8.58-.2-4.53-.19-5.84-.19-3.35.07-6.09.19-5.8.2-9.17.2-6.77.07-10.19.2-6.35.19-8.78.19c-1.32,0-2-.59-2.07-1.76s.64-1.76,2.07-1.76a35.54,35.54,0,0,0,11.35-1.47,10.44,10.44,0,0,0,6.21-5.88q2-4.4,2.58-12.43t.6-20.77V129.47a112.29,112.29,0,0,0-1.09-17.63q-1.08-6.47-3.58-9.1a8.13,8.13,0,0,0-6.67-2.44,47.39,47.39,0,0,0-10.51,2.07A1.79,1.79,0,0,1,552.87,101.33Z"/><path d="M619.69,97.61a1.64,1.64,0,0,1,.66-1.18L663,37.63c.44-.51.76-.78,1-.78s.33.39.33,1.18V76.9h22.16q6.51,0,12.71-.2c4.13-.12,7.5-.19,10.11-.19,5.54-.26,8.88-.32,10-.2s1.71.46,1.71,1q0,2-4.32,7.62T704.76,99h-6q-5.06,0-11.4-.19t-12.88-.2H663.7V224.19q0,43.95,21.67,43.95,9.95,0,19.15-10.64t14.91-31q.81-2.34,3.1-1.17c1.08.52,1.57,1.24,1.46,2.15a3.77,3.77,0,0,1-.32,1.37,177.18,177.18,0,0,1-9.54,19,85.34,85.34,0,0,1-12.3,16.61,63.37,63.37,0,0,1-14.67,11.52,33.11,33.11,0,0,1-16.46,4.4q-17,0-24.52-13.19t-7.58-41.9V98.58H620.35C619.91,98.58,619.69,98.26,619.69,97.61Z"/><path class="cls-1" d="M554.52,68c.39-16.64,10.18-29.82,21.62-29.51,11.14.31,20.42,13.32,20.79,29.51Z"/><path class="cls-2" d="M565.65,70.67C566,54,575.83,40.86,587.27,41.17c11.14.31,20.42,13.31,20.79,29.5Z"/></g></g></svg>