<svg width="27" height="27" viewBox="0 0 27 27" fill="none" xmlns="http://www.w3.org/2000/svg">
<path d="M13.384 0.75C10.8847 0.75 8.44172 1.49808 6.36402 2.89936C4.28634 4.30063 2.66735 6.29205 1.7114 8.62154C0.755455 10.951 0.505373 13.5142 0.992677 15.987C1.47998 18.4598 2.68287 20.7315 4.44959 22.5148C6.21632 24.2981 8.46757 25.5128 10.9188 26.0049C13.37 26.4971 15.9107 26.2445 18.2195 25.2791C20.5284 24.3138 22.5014 22.6793 23.8893 20.5826C25.2773 18.486 26.0179 16.0212 26.0179 13.5C26.0179 10.1192 24.6874 6.87648 22.3184 4.48521C19.9492 2.09387 16.7355 0.75 13.384 0.75ZM13.384 25.1023C11.1115 25.1023 8.88992 24.4222 7.00008 23.1476C5.11021 21.873 3.63689 20.0611 2.76677 17.9408C1.89665 15.8204 1.66896 13.4871 2.11257 11.2361C2.55618 8.98498 3.6511 6.91755 5.2585 5.29509C6.86588 3.67264 8.91353 2.56801 11.1424 2.12052C13.3712 1.67302 15.6815 1.90267 17.7811 2.78053C19.8808 3.65839 21.6758 5.14516 22.9389 7.05319C24.202 8.96125 24.8763 11.2048 24.8763 13.5C24.8763 16.5779 23.6649 19.5292 21.5094 21.7049C19.354 23.8805 16.4312 25.1023 13.384 25.1023Z" fill="#FA5F07" stroke="#FA5F07" stroke-width="0.5"/>
<path d="M8.5859 12.5806L8.41678 12.4101L8.23961 12.5722L7.76579 13.0058L7.5727 13.1825L7.75808 13.3673L11.5802 17.1771L11.7501 17.3464L11.9264 17.1836L19.0021 10.6483L19.1885 10.4761L19.0135 10.2922L18.5713 9.82764L18.4014 9.64917L18.2205 9.81643L11.7643 15.7853L8.5859 12.5806Z" fill="#FA5F07" stroke="#FA5F07" stroke-width="0.5"/>
</svg>
