<svg width="161" height="32" fill="none" xmlns="http://www.w3.org/2000/svg"><path d="M64.429 6.558c.483-.02.86 0 1.13.058.349.077.571.203.668.377.038.077 0 .116-.116.116h-.087a.314.314 0 00-.232.087c-.039.058-.107.077-.203.058a1.343 1.343 0 00-.261-.029.88.88 0 01-.261.029c-.58-.02-1.064.02-1.45.116a2.026 2.026 0 01-.493.058.635.635 0 00-.435.087c-.097.058-.252.077-.464.058-.368 0-.658.058-.87.174-.039.02-.145.039-.32.058a.726.726 0 00-.376.087 1.554 1.554 0 01-.377.087c-.348.039-.532.077-.551.116v.058c.02 0 .038.01.058.029.251.077.377.3.377.667 0 .135.02.261.058.377.038.174.067.483.087.928.038 1.063.058 1.653.058 1.769 0 .039-.01.261-.03.667 0 .367-.009.59-.028.667-.02.058-.039.155-.058.29 0 .135-.01.242-.03.319-.019.058-.019.193 0 .406.02.213.01.338-.028.377-.02.02-.03.145-.03.377s-.019.377-.057.435a.145.145 0 000 .174.518.518 0 01-.03.377c-.038.058-.048.097-.028.116.038.02.058.145.058.377s-.03.367-.087.406c-.058.02-.078.106-.058.261.02.135.038.222.058.261.02.02.01.048-.03.087-.038.02-.028.058.03.116.038.039.058.155.058.348.02.174.01.29-.03.348-.077.116-.154.126-.231.029-.02-.039-.01-.184.029-.435.038-.251.038-.377 0-.377a.316.316 0 01-.058-.116v-.145c-.078-.193-.087-.31-.03-.348.02-.02.05-.28.088-.783 0-.135.01-.222.029-.261.02-.039.02-.116 0-.232v-.87c.02-.425.029-.657.029-.696v-.116-.058-.116a.475.475 0 00.029-.145c.02-.27.02-.793 0-1.566 0-.773-.01-1.247-.03-1.421 0-.116-.019-.174-.057-.174-.039 0-.058.087-.058.261 0 .425-.02.715-.058.87a.328.328 0 00.029.232c.058.077.067.145.029.203a.4.4 0 00-.087.203c-.02.077-.02.135 0 .174.038.02.048.048.029.087-.02.02-.049.232-.087.638-.039.387-.049.638-.03.754a.95.95 0 01-.028.232v.348c0 .155-.01.27-.03.348a.465.465 0 000 .232.59.59 0 010 .261c-.019.097-.038.261-.057.493 0 .213.01.329.029.348.02.058.02.097 0 .116-.02 0-.03.261-.03.783a7.724 7.724 0 00.175 1.653c.058.155.106.232.145.232.038-.02.058 0 .058.058 0 .039.01.077.029.116 0 .077-.02.116-.058.116a.329.329 0 01-.116-.116c-.058-.077-.087-.135-.087-.174 0-.039-.01-.068-.03-.087-.019-.02-.048-.106-.086-.261a3.885 3.885 0 00-.087-.406c-.058-.29-.068-1.063-.03-2.32a573.694 573.694 0 00.088-2.842c.02-.02.029-.454.029-1.305 0-.87-.01-1.421-.03-1.653a6.557 6.557 0 00-.115-1.044c-.097-.445-.136-.686-.116-.725a.282.282 0 01.174-.116c.077-.02.125-.048.145-.087 0-.039-.02-.048-.058-.029h-.087c-.078.02-.155.048-.232.087a.445.445 0 01-.174.058c-.039 0-.184.039-.435.116a2.694 2.694 0 00-.464.145c-.116.058-.406.135-.87.232a3.03 3.03 0 00-.493.145l-.667.203a5.623 5.623 0 00-.754.232c-.232.077-.397.116-.493.116h-.116a.34.34 0 01-.087-.058.335.335 0 00-.058-.087c-.02-.174-.02-.29 0-.348.038-.077.367-.213.986-.406.6-.193 1.053-.338 1.363-.435.541-.174.88-.28 1.015-.319a45.934 45.934 0 011.914-.493c.638-.155 1.324-.3 2.059-.435a15.116 15.116 0 012.088-.29h.406zm.464.174h-.61c-.096.02-.338.048-.724.087-.387.02-.725.058-1.015.116-.31.058-.542.097-.696.116-.329.039-.551.087-.667.145a.474.474 0 01-.116.029c-.116-.02-.32.01-.61.087-.115.039-.328.097-.637.174-.31.077-.56.135-.754.174a5.83 5.83 0 01-.377.116.713.713 0 00-.261.058 1.796 1.796 0 01-.348.116 3.378 3.378 0 00-.522.145c-.155.039-.28.068-.377.087-.368.097-.58.193-.638.29.02.039.116.02.29-.058.135-.039.241-.058.319-.058.077 0 .174-.02.29-.058.116-.039.251-.077.406-.116.58-.135.918-.242 1.015-.319.058-.039.174-.058.348-.058.193-.02.396-.058.609-.116.212-.039.464-.097.754-.174.483-.097.754-.155.812-.174.212-.058.348-.087.406-.087.077 0 .154-.01.232-.029.077-.02.29-.058.638-.116.908-.135 1.72-.203 2.436-.203l.783-.029a.357.357 0 00-.203-.058.515.515 0 01-.232-.058c-.078-.02-.261-.029-.551-.029zm-.638.348c-.058 0-.087.01-.087.029 0 .02.02.029.058.029.058 0 .096-.01.116-.029l-.087-.029zm-4.35 3.19c-.02-.039-.049-.058-.087-.058-.039 0-.058.02-.058.058 0 .039.029.058.087.058h.029c.02-.02.029-.039.029-.058zm.174 3.045h-.03c-.038.02-.048.058-.028.116 0 .039.01.068.029.087a.313.313 0 00.058-.116c0-.058-.01-.087-.03-.087zM61.749.99c.155 0 .31.077.465.232.096.116.135.551.116 1.305v1.247c-.02.193-.03.56-.03 1.102-.019 1.624-.048 2.562-.086 2.813-.039.367-.02.609.058.725.038.039.038.097 0 .174-.039.097-.058.28-.058.551 0 .251.019.416.058.493.019.039.01.116-.03.232-.019.097-.028.338-.028.725.019.367.019.57 0 .609-.02.039-.01.116.029.232.058.116.067.193.029.232-.02.02-.02.116 0 .29.019.174.01.31-.03.406a.723.723 0 000 .29c.02.097.02.242 0 .435 0 .193.01.329.03.406.038.077.029.155-.03.232a.191.191 0 00-.028.174c0 .193.087.106.26-.261.097-.232.155-.358.175-.377.038-.02.058-.087.058-.203a.39.39 0 01.145-.261c.077-.058.116-.097.116-.116 0-.02.067-.106.203-.261.135-.174.203-.29.203-.348 0-.058.154-.213.464-.464.483-.406.928-.619 1.334-.638.27 0 .56.087.87.261.309.155.56.358.754.609.212.31.28.464.203.464a.62.62 0 01-.145-.116c-.058-.058-.087-.058-.087 0s.019.116.058.174c.038.039.077.058.116.058.019-.02.048 0 .087.058a.519.519 0 01.145.145c.058.058.077.097.058.116-.02.02-.068.01-.145-.029-.058-.058-.097-.077-.116-.058-.02 0 .01.106.087.319.096.213.154.319.174.319.038 0 .067-.048.087-.145l.029-.145.087.203c.058.155.077.27.058.348 0 .058.019.126.058.203.038.058.048.135.029.232 0 .097-.02.126-.058.087a.281.281 0 01-.058-.145.637.637 0 00-.087-.174.68.68 0 00-.145-.232c-.058-.077-.087-.106-.087-.087-.02.02.019.174.116.464.116.27.164.416.145.435 0 .02.029.097.087.232.193.56.251.938.174 1.131-.078-.077-.252-.609-.522-1.595-.213-.793-.377-1.295-.493-1.508a1.73 1.73 0 01-.203-.435 1.477 1.477 0 00-.261-.377 2.917 2.917 0 00-.348-.348c-.174-.116-.416-.106-.725.029-.31.116-.619.338-.928.667a4.21 4.21 0 00-.348.435 1.125 1.125 0 01-.145.203c-.116.174-.174.28-.174.319 0 .039-.03.106-.087.203-.155.251-.358.764-.61 1.537-.057.213-.115.358-.173.435-.078.155-.107.454-.087.899 0 .251-.02.396-.058.435-.078.02-.184-.01-.32-.087a.883.883 0 01-.29-.203c-.096-.116-.135-.28-.115-.493 0-.251-.03-.609-.087-1.073-.02-.251-.01-.406.029-.464.038-.058.038-.097 0-.116a.894.894 0 01-.058-.174.498.498 0 00-.03-.203c0-.039.01-.097.03-.174.038-.077.067-.097.087-.058.038.097.058-.377.058-1.421-.02-.251-.02-.416 0-.493l-.058-.058c-.039.039-.068.048-.087.029a1.175 1.175 0 01-.058-.29c-.02-.155-.02-.261 0-.319.038-.116.077-.116.116 0v.116c.019.213.038.319.058.319.019-.02.029-.068.029-.145v-.783c.019-.773.019-1.208 0-1.305a.244.244 0 01.029-.203.247.247 0 000-.232 1.184 1.184 0 010-.377c.019-.174.01-.27-.03-.29-.038-.02-.067.01-.086.087a.88.88 0 01-.03.261c-.019.077-.038.058-.057-.058a.497.497 0 01-.03-.203v-.203c.02-.02.049-.02.088 0 .058.02.087-.01.087-.087.019-.097.029-.512.029-1.247.019-.503.038-.773.058-.812.019-.058.01-.106-.03-.145-.019-.039-.019-.068 0-.087.02-.039.02-.087 0-.145-.019-.058-.038-.068-.057-.029v.087a.358.358 0 01-.058.145c0 .02-.01.029-.03.029-.096-.039-.115-.261-.057-.667.038-.213.048-.338.029-.377-.02-.058-.02-.261 0-.609.038-.657.048-1.489.029-2.494-.02-.329-.01-.503.029-.522 0-.02.01-.029.029-.029zm-.086 5.626c0-.058.01-.077.029-.058.038 0 .058.02.058.058 0 .02-.02.039-.058.058h-.03v-.058zm0 2.436c.019 0 .029.029.029.087.019.039.029.097.029.174 0 .058-.01.097-.03.116-.038.058-.067.048-.086-.029a.849.849 0 01-.03-.203c.02-.077.049-.126.088-.145zm0 .609l.029-.087c0-.02.01-.02.029 0 .038.058.038.097 0 .116-.02.02-.039.029-.058.029v-.058zm.029.899h-.03c-.038 0-.057.02-.057.058 0 .039.01.058.029.058.038 0 .058-.02.058-.058v-.058zm5.916 3.625v.029c.019.039.019.068 0 .087l-.03-.058c0-.039.01-.058.03-.058zm3.156-6.206c.503.02.803.126.9.319 0 .058-.01.097-.03.116-.038.058-.125.077-.26.058-.271-.039-.648.058-1.132.29-.212.116-.348.174-.406.174-.038 0-.29.116-.754.348-.444.232-.705.348-.783.348a.404.404 0 00-.174.029 1.127 1.127 0 01-.348.087c-.174.02-.28.01-.319-.029-.058-.039-.087-.068-.087-.087 0-.039.261-.222.783-.551.522-.348.87-.57 1.044-.667.503-.251.948-.396 1.334-.435h.232zm-.957 2.291c.116-.02.242.029.377.145l.174.145v.609c-.019.425-.048.744-.087.957-.019.213-.038.377-.058.493-.019.097-.058.319-.116.667-.019.232-.058.493-.116.783-.019.193-.048.387-.087.58-.038.193-.058.503-.058.928 0 .425-.029.677-.087.754a.43.43 0 00-.116.203c-.019.058-.067.097-.145.116-.058 0-.096-.029-.116-.087-.212-.6-.222-1.634-.029-3.103.194-1.43.29-2.34.29-2.726 0-.213.01-.348.03-.406.019-.039.067-.058.144-.058zm-.116 2.523h-.029c0-.02-.01-.02-.029 0-.019.02-.029.048-.029.087 0 .02.01.02.03 0 .038-.02.057-.048.057-.087zm-.116.493c-.019 0-.029.039-.029.116l.03.087a.269.269 0 000-.174v-.029zm-.058.638c.02-.097.01-.145-.029-.145-.019 0-.029.058-.029.174 0 .174.02.164.058-.029zm-.058.232v.087l.03.058c.019-.039.019-.087 0-.145h-.03zm2.08 3.538c0-.02.097-.106.29-.261.58-.445 1.016-.918 1.306-1.421.096-.174.203-.348.319-.522.135-.193.203-.319.203-.377 0-.058-.136-.193-.406-.406-.716-.56-1.218-1.025-1.508-1.392a2.566 2.566 0 01-.493-1.189c-.039-.464.087-.976.377-1.537.212-.425.435-.744.667-.957.232-.232.56-.425.986-.58.328-.135.599-.193.812-.174.232.02.348.106.348.261 0 .058-.058.077-.174.058-.116-.02-.203.02-.261.116-.058.077-.174.174-.348.29-.155.097-.358.27-.61.522a4.884 4.884 0 00-.492.551 1.466 1.466 0 00-.174.348 3.874 3.874 0 01-.203.406c-.194.425-.232.85-.116 1.276.019.135.077.3.174.493.096.193.164.29.203.29.019 0 .029.02.029.058 0 .039.096.155.29.348.193.193.357.329.493.406.29.193.657.512 1.102.957.058.058.087.145.087.261.019.077-.02.174-.116.29-.078.116-.29.358-.638.725-.116.116-.28.261-.493.435-.194.155-.31.232-.348.232-.097 0-.068-.077.087-.232l.029-.087a2.783 2.783 0 00-.32.29 4.23 4.23 0 01-.55.406 1.286 1.286 0 01-.232.116 1.25 1.25 0 01-.232.029c-.058 0-.087-.01-.087-.029zm14.19-8.613c.27 0 .454.087.55.261.04.077.058.435.058 1.073 0 .619-.038.957-.116 1.015a.312.312 0 01-.174.058c-.058-.02-.096-.232-.116-.638 0-.986-.077-1.47-.232-1.45-.058 0-.125.077-.203.232a1.854 1.854 0 00-.203.319c-.077.174-.145.3-.203.377-.174.329-.27.532-.29.609a.684.684 0 01-.087.29 2.64 2.64 0 00-.116.464l-.116.638c-.038.213-.058.812-.058 1.798s.04 1.576.116 1.769c.174.445.31.667.406.667.116 0 .28-.058.493-.174.213-.135.387-.27.522-.406.29-.329.551-.667.783-1.015.04-.058.097-.145.174-.261.078-.116.165-.251.261-.406.116-.174.184-.27.203-.29.04 0 .107-.068.203-.203.097-.155.145-.242.145-.261 0-.039.02-.058.058-.058.097 0 .02.184-.232.551-.174.27-.26.416-.26.435l-.233.348c-.135.213-.203.338-.203.377 0 .077.116-.039.348-.348.04-.058.078-.116.116-.174.078-.116.145-.213.203-.29.078-.097.136-.164.174-.203.058-.039.097-.058.116-.058.02.039 0 .126-.058.261-.058.116-.116.184-.174.203-.038.02-.048.048-.029.087.02.039-.01.116-.087.232a.668.668 0 00-.087.261c0 .058-.019.087-.058.087-.019 0-.038.048-.058.145-.019.097-.058.164-.116.203-.038.039-.058.077-.058.116 0 .02-.087.145-.26.377-.175.213-.28.329-.32.348a.623.623 0 00-.145.116c-.174.174-.386.3-.638.377-.232.077-.415.097-.55.058a.963.963 0 00-.233-.058c-.116-.02-.28-.106-.493-.261-.212-.174-.348-.31-.406-.406-.038-.097-.067-.145-.087-.145-.019 0-.038-.048-.058-.145a3.99 3.99 0 00-.116-.464c-.038-.213-.048-.677-.029-1.392 0-.754.049-1.363.145-1.827.097-.483.271-1.054.522-1.711.194-.541.426-.957.696-1.247a.734.734 0 01.493-.261h.116zm3.131 2.842h.03c.019.02-.03.145-.146.377a2.305 2.305 0 01-.26.464c-.097.135-.155.184-.175.145-.058-.097-.038-.203.058-.319.04-.039.107-.145.203-.319.116-.251.213-.367.29-.348zm-.84 1.363c0-.058.019-.087.057-.087.04 0 .058.029.058.087 0 .039-.019.058-.058.058-.038 0-.058-.02-.058-.058zm2.42-2.552c.503-.503.764-.754.784-.754.038 0 .096.039.174.116a.52.52 0 00.319.087c.232 0 .473.068.725.203.251.135.425.3.522.493.096.174.116.493.058.957-.02.174-.068.27-.145.29-.058.02-.078.058-.058.116.019.155-.116.435-.406.841-.116.174-.223.329-.32.464-.29.445-.637.928-1.043 1.45-.329.387-.658.667-.986.841-.31.174-.561.213-.754.116-.136-.077-.28-.213-.435-.406a1.996 1.996 0 01-.261-.464c-.039-.174 0-.532.116-1.073.038-.174.145-.483.319-.928.193-.445.348-.754.464-.928.116-.213.174-.377.174-.493 0-.097.038-.193.116-.29.077-.097.29-.31.638-.638zm1.277-.261c-.039 0-.068.01-.087.029-.02 0-.03.01-.03.029.02.058-.019.116-.115.174a.386.386 0 01-.232.087c-.097.02-.155.029-.174.029-.155.02-.358.28-.61.783-.173.367-.328.744-.463 1.131a2.11 2.11 0 01-.174.406 5.584 5.584 0 00-.493 1.914c-.02.174 0 .261.058.261.077 0 .174-.048.29-.145.348-.251.792-.725 1.334-1.421.638-.831.957-1.286.957-1.363l.145-.203c.154-.193.26-.416.319-.667.077-.27.077-.493 0-.667-.078-.213-.271-.329-.58-.348a.478.478 0 00-.145-.029zm1.044 1.537c0-.039-.02-.058-.058-.058-.02-.02-.039-.01-.058.029a.123.123 0 000 .116c.019.02.038.029.058.029.038-.02.058-.058.058-.116zm-.551.522c-.02 0-.03.01-.03.029-.038.02-.299.348-.782.986-.484.638-.735.976-.754 1.015l.29-.232.058-.029a43.9 43.9 0 00.319-.435c.154-.213.241-.319.26-.319.04 0 .059-.02.059-.058 0-.039.029-.087.087-.145.058-.058.135-.155.232-.29.096-.135.164-.251.203-.348.058-.116.077-.174.058-.174zm-2.784.377h-.03c0-.02-.009-.02-.028 0-.02.02-.03.048-.03.087 0 .02.01.02.03 0 .038-.02.058-.048.058-.087zm2.755.145c.019-.058.01-.087-.03-.087-.019 0-.028.029-.028.087v.058c.019 0 .038-.02.058-.058zm-.232.319a.336.336 0 00-.058.087c-.02.058-.01.068.029.029.038-.058.048-.097.029-.116zm2.053-2.784c.078-.058.126-.087.145-.087.039 0 .107.02.203.058.194.058.232.145.116.261-.038.058-.058.193-.058.406l.03.29c.019 0 .028.29.028.87 0 .58.039 1.044.116 1.392.078.348.126.551.145.609.039.039.087.135.145.29.097.27.194.425.29.464.058.02.155-.029.29-.145.136-.116.261-.261.377-.435.155-.213.358-.56.61-1.044.25-.503.483-.928.695-1.276.213-.348.368-.57.464-.667.116-.097.232-.126.348-.087.058.02.145.01.261-.029.31-.077.687.087 1.131.493.368.348.551.6.551.754 0 .097.03.164.087.203.058.039.078.077.058.116 0 .039.029.087.087.145l.087.058c-.019-.116 0-.174.058-.174.039 0 .078.058.116.174a.706.706 0 01.058.261c-.019.116-.009.193.029.232.039.02.049.048.029.087 0 .02-.019.029-.058.029-.058 0-.29-.242-.696-.725-.696-.831-1.121-1.247-1.276-1.247-.02 0-.067.048-.145.145a8.841 8.841 0 00-.522.783l-.174.29c-.058.097-.212.387-.464.87-.232.483-.406.802-.522.957a2.602 2.602 0 00-.203.319c-.02.077-.096.145-.232.203a2.23 2.23 0 01-.26.116c-.078.039-.223.058-.436.058-.193-.02-.328-.058-.406-.116a.496.496 0 00-.232-.087c-.058 0-.203-.106-.435-.319-.212-.232-.357-.454-.435-.667-.174-.522-.26-1.237-.26-2.146 0-.619.019-1.034.057-1.247.039-.213.107-.358.203-.435zm3.8 1.16c-.02-.02-.05-.02-.088 0-.077.039-.3.367-.667.986-.367.619-.55.976-.55 1.073 0 .116.048.087.144-.087.02-.02.03-.048.03-.087.057-.116.115-.213.173-.29l.261-.435c.194-.367.368-.657.522-.87.155-.193.213-.29.174-.29zm-.639 1.624h-.029c-.038.02-.058.048-.058.087 0 .02.02.029.058.029.039 0 .058-.029.058-.087 0-.02-.01-.029-.029-.029zm5.404-11.948c.058.02.135.058.232.116s.145.097.145.116c0 .02-.048.077-.145.174-.077.077-.126.232-.145.464 0 .232-.029.416-.087.551-.058.174-.164.783-.319 1.827-.155 1.025-.242 1.73-.261 2.117a31.063 31.063 0 00-.087 1.624 358.2 358.2 0 01-.087 1.392c-.019.29-.019.464 0 .522.039.039.048.145.029.319-.058.6-.068.938-.029 1.015.039.039.039.184 0 .435-.019.232-.01.387.029.464.039.077.029.145-.029.203a.144.144 0 000 .174c.039.039.058.126.058.261s-.01.261-.029.377c-.019.116-.039.174-.058.174-.019 0-.029.01-.029.029l-.029.029v.029c.019 0 .039-.01.058-.029.019 0 .039.02.058.058.019.02.029.048.029.087a.125.125 0 010 .116.305.305 0 000 .261c.058.077.068.155.029.232-.019.058-.01.097.029.116.058.02.068.087.029.203-.039.097-.039.174 0 .232.039.039.058.077.058.116 0 .039.019.087.058.145.039.039.048.116.029.232 0 .097.029.251.087.464.077.213.135.338.174.377.039.02.048.068.029.145 0 .077.029.193.087.348a.429.429 0 00.319.232l.145.058c-.058.077-.251.048-.58-.087-.135-.039-.348-.329-.638-.87a1.9 1.9 0 00-.116-.203c-.058-.097-.126-.338-.203-.725-.077-.387-.106-.638-.087-.754.019-.135.01-.222-.029-.261-.097-.135-.126-.348-.087-.638.019-.116.01-.193-.029-.232-.039-.039-.058-.106-.058-.203 0-.116.01-.203.029-.261.039-.058.039-.145 0-.261a1.03 1.03 0 01-.029-.435c.019-.193.01-.3-.029-.319-.019-.02-.019-.077 0-.174.019-.135.029-.338.029-.609 0-.27-.01-.435-.029-.493a.647.647 0 01.029-.319c.019-.116.029-.29.029-.522.019-.232.01-.358-.029-.377-.019-.02-.01-.232.029-.638.058-.425.077-.657.058-.696-.019-.039-.019-.155 0-.348.019-.213.058-.667.116-1.363.019-.135.019-.203 0-.203 0-.02.048-.377.145-1.073.174-1.315.348-2.233.522-2.755.019-.039.039-.087.058-.145l.058-.232.087-.174c.058-.174.116-.29.174-.348a.279.279 0 01.203-.087zm-1.015 9.512c.019-.058.01-.087-.029-.087-.019-.02-.039.01-.058.087 0 .058.01.087.029.087.039 0 .058-.029.058-.087zm-.116 1.682h-.029c-.019.02-.029.058-.029.116a.336.336 0 00.058.087c.039 0 .058-.039.058-.116.019-.077 0-.106-.058-.087zm7.986-10.063c.116 0 .242.02.377.058.329.097.474.242.435.435-.038.213-.087.242-.145.087-.058-.135-.116-.087-.174.145-.019.02-.029.048-.029.087-.038.174-.058.28-.058.319.02.039.01.068-.029.087-.019.02-.077.126-.174.319-.077.174-.116.29-.116.348-.019.097-.058.145-.116.145-.019-.02.02-.193.116-.522.194-.638.29-1.005.29-1.102 0-.02-.009-.029-.029-.029-.077 0-.164.174-.261.522a3.43 3.43 0 01-.174.609c-.174.541-.232.831-.174.87.02.039.039.029.058-.029.02-.02.029-.039.029-.058.039-.097.078-.145.116-.145.039 0 .02.097-.058.29a1.242 1.242 0 00-.116.377.65.65 0 01-.116.29c-.038.058-.048.242-.029.551.02.31.01.483-.029.522-.019.039-.038.261-.058.667 0 .387-.029.58-.087.58-.058 0-.087.029-.087.087 0 .058-.048.126-.145.203-.096.135-.087.203.029.203.078-.02.116-.068.116-.145 0-.02.01-.048.029-.087.02-.058.039-.087.058-.087.039-.02.068-.02.087 0 .02 0 .039.184.058.551 0 .367.01.6.029.696.02.077.039.28.058.609.02.329.039.512.058.551.039.02.058.106.058.261 0 .135.01.28.029.435.02.135.039.29.058.464.02.251.087.6.203 1.044a.845.845 0 01.058.319c0 .116.02.213.058.29.039.077.068.193.087.348a7.62 7.62 0 00.551 2.001c.039.135.107.319.203.551.097.232.194.454.29.667.116.213.203.416.261.609.078.193.136.319.174.377.039.02.097.126.174.319.097.193.174.377.232.551.078.174.116.251.116.232a.48.48 0 01-.116-.029 2.678 2.678 0 01-.203-.261c-.077-.135-.116-.232-.116-.29 0-.039-.048-.097-.145-.174-.096-.097-.145-.155-.145-.174a.637.637 0 00-.087-.174 11.07 11.07 0 01-1.305-2.494 8.537 8.537 0 01-.319-.986c-.077-.367-.106-.56-.087-.58.039-.02.058-.01.058.029.02.058.058.077.116.058.039-.02.049-.048.029-.087 0-.058-.038-.077-.116-.058-.058 0-.106-.029-.145-.087a.76.76 0 01-.087-.29c-.019-.135-.009-.213.029-.232.058-.039.087-.077.087-.116 0-.039.029-.068.087-.087.078-.02.107-.058.087-.116-.019-.077-.058-.116-.116-.116s-.087-.058-.087-.174c0-.058-.009-.097-.029-.116 0-.02-.019-.02-.058 0-.038.02-.058.077-.058.174 0 .077.02.126.058.145.058.02.068.077.029.174-.058.155-.096.155-.116 0a.327.327 0 01-.029-.145 1.182 1.182 0 00-.087-.377v-.087c.02-.02.058-.029.116-.029.097 0 .165-.058.203-.174.02-.077.02-.126 0-.145 0-.02-.029-.029-.087-.029-.096-.02-.174-.01-.232.029l-.058.058c-.038-.02-.038-.068 0-.145a.273.273 0 01.203-.145c.097-.02.145-.077.145-.174 0-.097-.038-.145-.116-.145-.096.02-.135-.02-.116-.116.02-.039.058-.068.116-.087.078-.02.097-.039.058-.058a.2.2 0 01-.058-.145c0-.058-.019-.087-.058-.087-.019 0-.048-.039-.087-.116-.038-.077-.029-.135.029-.174.058-.039.058-.097 0-.174-.096-.213-.106-.31-.029-.29.039.02.068-.01.087-.087.02-.039.02-.068 0-.087-.019-.02-.048 0-.087.058-.038.058-.077.087-.116.087-.038 0-.087.029-.145.087l-.058.116-.029-.116a1.842 1.842 0 01-.029-.232c.02-.039.068-.058.145-.058.078.02.126-.01.145-.087a.195.195 0 00-.058-.145c-.038-.039-.077-.048-.116-.029-.058.02-.087.058-.087.116 0 .135-.009.145-.029.029a.891.891 0 01-.029-.261c-.019-.174-.009-.261.029-.261.039 0 .049.02.029.058-.019.02-.009.058.029.116.039.058.087.068.145.029.058-.039.078-.097.058-.174 0-.097-.048-.145-.145-.145h-.116c0-.02.01-.039.029-.058.039-.058.087-.116.145-.174.116-.097.116-.193 0-.29-.116-.077-.164-.048-.145.087v.087c0 .116-.019.174-.058.174-.096-.058-.183.02-.261.232-.077.193-.164.261-.261.203-.058-.039-.077-.077-.058-.116.02-.058.058-.077.116-.058.058.02.087 0 .087-.058s.029-.106.087-.145a.466.466 0 00.116-.261c.02-.116-.019-.184-.116-.203-.077-.02-.135-.01-.174.029-.038.039-.048.097-.029.174.02.097 0 .145-.058.145-.116 0-.106-.116.029-.348a.463.463 0 00.058-.203c0-.058.01-.087.029-.087.039 0 .058.039.058.116 0 .058.029.087.087.087.058-.02.097-.097.116-.232.039-.155.039-.232 0-.232-.019 0-.048.029-.087.087-.077.077-.116.087-.116.029 0-.058.039-.145.116-.261.136-.31.145-.483.029-.522-.038-.02-.038-.087 0-.203.039-.135.068-.338.087-.609.078-1.527.194-2.59.348-3.19.039-.193.145-.396.319-.609a.615.615 0 01.435-.261zm-.261.435c0-.039.029-.058.087-.058.058 0 .097.02.116.058.02.058.01.097-.029.116-.019.02-.029.01-.029-.029s-.029-.058-.087-.058c-.038 0-.058-.01-.058-.029zm-.551 4.321c-.038-.02-.067-.01-.087.029-.058.097-.048.145.029.145.039 0 .068-.029.087-.087.039-.058.029-.087-.029-.087zm-2.088 1.334c.503 0 .832.193.986.58.02.077.058.116.116.116.058-.02.087-.068.087-.145 0-.058.01-.097.029-.116.039-.02.058-.01.058.029.02.077-.009.135-.087.174-.038.058-.048.145-.029.261.02.135.029.29.029.464 0 .174-.009.3-.029.377-.019.077-.048.358-.087.841-.019.464-.058.773-.116.928l-.116.232c-.019.02-.087.039-.203.058-.116 0-.183.01-.203.029a.7.7 0 00-.087.145c-.058.232-.116.27-.174.116-.019-.039.01-.106.087-.203a.509.509 0 00.145-.377c.02-.174.039-.29.058-.348.039-.058.068-.174.087-.348.02-.174.01-.261-.029-.261-.058 0-.058-.097 0-.29.039-.174.049-.27.029-.29-.019-.039-.029-.222-.029-.551-.019-.503-.135-.86-.348-1.073-.077-.077-.164-.087-.261-.029a.962.962 0 00-.232.29 1.216 1.216 0 01-.232.319c-.328.367-.512.638-.551.812-.019.097-.048.145-.087.145-.058 0-.193.3-.406.899a9.47 9.47 0 01-.232.551.524.524 0 00-.058.232c.02.077 0 .232-.058.464-.193.657-.299 1.054-.319 1.189-.019.116-.048.27-.087.464-.077.425-.135.89-.174 1.392-.019.483-.009.735.029.754.097.058.31-.135.638-.58.387-.541.58-.899.58-1.073a.2.2 0 01.058-.145c.058-.039.087-.077.087-.116 0-.039.02-.106.058-.203l.145-.29c.058-.097.087-.135.087-.116.02 0 .039-.01.058-.029-.038-.174-.019-.261.058-.261.116 0 .155-.077.116-.232 0-.116.039-.222.116-.319.039.116.087.068.145-.145.058-.155.107-.251.145-.29a.63.63 0 00.087-.203c.02-.097.049-.155.087-.174a.44.44 0 01.087.116c0 .077-.019.126-.058.145-.019.02-.067.106-.145.261a.877.877 0 00-.087.29.2.2 0 00.058.145c.039.039.02.058-.058.058-.077 0-.125.048-.145.145a.362.362 0 01-.087.174.364.364 0 00-.058.087.262.262 0 00-.029.116c0 .039.01.058.029.058.097 0 .145-.02.145-.058 0-.058.029-.097.087-.116a.629.629 0 00.174-.203c.058-.116.087-.145.087-.087.02.058-.009.164-.087.319-.077.135-.116.232-.116.29 0 .039-.077.213-.232.522-.154.31-.251.541-.29.696-.135.387-.367.793-.696 1.218-.212.251-.406.406-.58.464-.174.058-.386.039-.638-.058a.931.931 0 01-.493-.406c-.077-.116-.116-.28-.116-.493 0-.232.01-.406.029-.522.039-.116.058-.27.058-.464.02-.213.039-.319.058-.319.039 0 .058-.068.058-.203 0-.155.01-.232.029-.232.039 0 .058-.058.058-.174 0-.097-.009-.145-.029-.145h-.058v-.058c.02-.058.049-.087.087-.087.058 0 .155-.28.29-.841.174-.638.31-1.044.406-1.218a.63.63 0 00.087-.203c.02-.097.039-.174.058-.232.039-.058.029-.077-.029-.058-.077.02-.096-.01-.058-.087a.999.999 0 00.058-.145c.058-.097.107-.135.145-.116.058.02.087.01.087-.029 0-.058.01-.087.029-.087.02 0 .029-.02.029-.058 0-.058-.019-.068-.058-.029-.077.058-.077.01 0-.145.02-.077.068-.174.145-.29.426-.773.832-1.257 1.218-1.45.174-.097.368-.145.58-.145zm2.436.957c.02-.039.01-.058-.029-.058-.038 0-.058.02-.058.058 0 .02.01.029.029.029.02 0 .039-.01.058-.029zm-1.044.174l.058-.029c.02 0 .029.02.029.058 0 .039-.029.077-.087.116-.038.039-.058.039-.058 0a.2.2 0 01.058-.145zm.667.899c0-.077.02-.116.058-.116.058 0 .087.029.087.087a.313.313 0 01-.058.087c-.058.039-.087.02-.087-.058zm.116.435c.039.02.049.068.029.145a.394.394 0 01-.029.174l-.058-.174.058-.145zm-1.827.261l.058-.087c.02 0 .029.01.029.029.02.058 0 .145-.058.261a1.537 1.537 0 00-.116.29c-.058.077-.077.164-.058.261.039.077.02.116-.058.116-.058 0-.087-.02-.087-.058 0-.135.058-.329.174-.58.039-.058.078-.135.116-.232zm-2.9.754v.029c.02.058.02.106 0 .145l-.029-.029v-.058l.029-.087zm-.232.696c.039 0 .039.058 0 .174l-.058-.029c0-.097.02-.145.058-.145zm2.755.116c.039-.039.068-.058.087-.058.02 0 .039.02.058.058.02.02.029.048.029.087v.116c0 .02-.009.029-.029.029-.038 0-.087-.029-.145-.087-.038-.058-.038-.106 0-.145zm2.871.203c-.019-.02-.029-.02-.029 0v.029c.02.058.01.106-.029.145-.116.097-.067.193.145.29v-.058a.457.457 0 00-.029-.145 1.016 1.016 0 00-.058-.261zm-3.48.87c-.019 0-.029.029-.029.087 0 .058.02.087.058.087H106a.444.444 0 00-.029-.116c-.019-.02-.038-.029-.058-.029 0-.02-.009-.029-.029-.029zm3.741.116c-.019-.058-.058-.087-.116-.087-.038 0-.067.029-.087.087-.019.039.01.097.087.174.155.155.213.164.174.029a.849.849 0 00-.058-.203zm.029.493c0-.039-.019-.058-.058-.058-.019-.02-.038-.01-.058.029-.019.02-.019.048 0 .087.02.039.039.058.058.058.039 0 .058-.039.058-.116zm.116.174c-.019-.039-.038-.048-.058-.029v.116c0 .116.01.184.029.203.078.077.116.058.116-.058a.386.386 0 00-.087-.232zm.203.725l-.029.029v.029c0 .02.02.058.058.116.039.039.068.058.087.058l-.029-.087c-.019-.077-.048-.126-.087-.145zm10.144-10.44a.88.88 0 01.319.087.951.951 0 01.261.145c.019.058.048.184.087.377.039.193.087.377.145.551.058.213.097 1.556.116 4.031.019 1.083.01 1.643-.029 1.682-.039.039-.039.106 0 .203a.374.374 0 010 .29c-.019.097-.01.174.029.232.058.039.106.02.145-.058a.745.745 0 00.116-.203c.193-.31.464-.638.812-.986a2.35 2.35 0 01.841-.551c.309-.116.551-.145.725-.087l.29.116a.45.45 0 01.232.232c.058.116.068.28.029.493-.097.754-.251 1.208-.464 1.363-.058.039-.087.106-.087.203 0 .077-.068.184-.203.319-.213.232-.348.406-.406.522-.039.058-.077.077-.116.058-.019 0-.039.01-.058.029l.029.029c0 .039-.029.068-.087.087-.039.02-.048.058-.029.116s-.01.126-.087.203c-.077.077-.155.116-.232.116-.058 0-.106.029-.145.087a6.585 6.585 0 01-.435.377c-.213.155-.377.251-.493.29-.174.077-.29.135-.348.174-.039.02-.068.126-.087.319 0 .193-.01.338-.029.435 0 .097.01.338.029.725.019.387.01.609-.029.667-.019.039-.019.087 0 .145.019.097.029.377.029.841.019.445.01.686-.029.725-.039.058-.145.039-.319-.058-.271-.155-.464-.464-.58-.928-.077-.27-.116-.628-.116-1.073 0-.464.019-.822.058-1.073.019-.077.048-.242.087-.493.039-.251.068-.406.087-.464.058-.251.126-.619.203-1.102.039-.174.058-.338.058-.493l.029-.203.029.203c.019.097.039.155.058.174.039.02.058 0 .058-.058a.41.41 0 00.029-.174c0-.116.019-.251.058-.406.039-.155.039-.242 0-.261-.039-.039-.039-.116 0-.232s.039-.203 0-.261c-.039-.077-.048-.145-.029-.203.039-.058.039-.135 0-.232a.468.468 0 01.029-.29.245.245 0 000-.232.327.327 0 01-.029-.232c.039-.097.048-.251.029-.464a41 41 0 00-.029-1.218c-.019-.58-.048-.89-.087-.928-.039-.058-.058.29-.058 1.044.019.251.01.406-.029.464-.039.039-.058.02-.058-.058 0-.039-.01-.174-.029-.406 0-.348-.01-.628-.029-.841a72.74 72.74 0 01-.087-1.334 17.76 17.76 0 00-.174-1.74c-.058-.483-.068-.744-.029-.783l.029-.029zm.464 3.393v-.116l-.029.029v.058c-.039.077-.048.135-.029.174.039.058.058.039.058-.058v-.087zm2.9 2.61c-.077 0-.203.048-.377.145-.174.077-.261.135-.261.174 0 .02-.068.097-.203.232-.116.116-.261.29-.435.522-.174.213-.28.319-.319.319-.019 0-.029.02-.029.058 0 .02-.058.126-.174.319-.116.193-.174.31-.174.348 0 .058-.048.135-.145.232a.513.513 0 01-.232.145.186.186 0 00-.145.145c-.019.058.01.097.087.116.058.02.058.126 0 .319a3.576 3.576 0 00-.058.696c0 .27-.019.416-.058.435-.077.077-.058.116.058.116a.685.685 0 00.29-.087c.116-.058.164-.097.145-.116-.039-.039.01-.116.145-.232.174-.174.406-.445.696-.812.29-.367.483-.648.58-.841.058-.135.106-.232.145-.29.039-.058.068-.106.087-.145l.058-.174a2.85 2.85 0 00.406-1.218c.019-.251.01-.387-.029-.406 0-.02-.019-.02-.058 0zm.522.348c-.019 0-.029.029-.029.087 0 .058.01.097.029.116.039 0 .068-.029.087-.087.019-.077-.01-.116-.087-.116zm-1.798.435c0-.02-.01-.029-.029-.029-.019 0-.058.029-.116.087-.058.039-.087.077-.087.116.019.02.097-.039.232-.174zm-.406.464c0-.02-.01-.029-.029-.029 0-.02-.01-.02-.029 0-.058.02-.087.039-.087.058.019.058.068.048.145-.029zm-.319.348c.039-.039.068-.058.087-.058.039 0 .048.02.029.058-.019.02-.048.029-.087.029-.039 0-.048-.01-.029-.029zm-.058.348c0-.077-.019-.116-.058-.116-.019 0-.029.02-.029.058 0 .039-.039.106-.116.203-.058.077-.087.145-.087.203 0 .058.029.048.087-.029.077-.077.116-.135.116-.174 0-.039.01-.058.029-.058.039 0 .058-.029.058-.087zm1.711.174c-.019 0-.048.02-.087.058a.44.44 0 00-.058.174c0 .02.019 0 .058-.058.058-.058.087-.106.087-.145v-.029zm-.203.319c-.019 0-.039.02-.058.058-.019.058-.01.068.029.029.039-.039.048-.068.029-.087zm-.203.377c.019-.039.019-.058 0-.058l-.058.029c-.058.077-.058.126 0 .145.039-.02.058-.058.058-.116zm-.203.232c-.039 0-.068.02-.087.058a3.83 3.83 0 01-.174.232c-.367.387-.551.59-.551.609 0 .077.106-.01.319-.261.058-.058.164-.174.319-.348a.325.325 0 00.116-.116c.039-.039.058-.068.058-.087.019-.039.019-.058 0-.058v-.029zm-1.943 1.131c0-.097-.01-.145-.029-.145l-.029.145c-.019.097-.019.145 0 .145.039 0 .058-.048.058-.145zm.029 1.392h-.029c-.019.02-.029.068-.029.145 0 .058.01.087.029.087.039 0 .058-.048.058-.145 0-.058-.01-.087-.029-.087zm-.029.377c-.019 0-.039.077-.058.232-.019.135-.029.27-.029.406 0 .116.01.174.029.174.019 0 .048-.039.087-.116a.61.61 0 00.029-.232.898.898 0 000-.319c-.019-.097-.039-.145-.058-.145zm6.854-7.424c.193.02.387.106.58.261a.468.468 0 01.145.406c0 .135-.039.232-.116.29-.077.058-.126.087-.145.087-.019 0-.039.02-.058.058v.087l.058.116c.039.039-.01.213-.145.522-.135.29-.28.57-.435.841-.155.251-.242.416-.261.493 0 .058-.077.213-.232.464-.155.251-.242.406-.261.464a.613.613 0 01-.116.145c-.329.445-.57.706-.725.783l-.232.116v.29c.019.464.155.831.406 1.102.232.251.57.377 1.015.377.967 0 1.798-.135 2.494-.406.87-.329 1.353-.522 1.45-.58.058-.039.097-.058.116-.058.039 0 .309-.145.812-.435.174-.097.28-.145.319-.145.039 0-.01.048-.145.145-.387.27-.764.483-1.131.638-.135.039-.222.087-.261.145-.039.02-.039.029 0 .029l.087-.029a.9.9 0 00.203-.058c.039-.039.213-.116.522-.232.309-.116.474-.174.493-.174.058 0 .058.039 0 .116-.058.077-.077.126-.058.145h-.087c-.058-.02-.155.039-.29.174-.135.116-.28.213-.435.29a3.27 3.27 0 00-.435.232c-.541.367-1.373.609-2.494.725-.599.077-1.112.029-1.537-.145a2.604 2.604 0 01-1.044-.754c-.367-.445-.541-.773-.522-.986.019-.058.01-.097-.029-.116-.039-.02-.048-.077-.029-.174.039-.116.01-.213-.087-.29-.155-.155-.164-.242-.029-.261.039-.02.077-.213.116-.58.058-.638.193-1.199.406-1.682a7.58 7.58 0 01.957-1.566c.425-.522.754-.812.986-.87h.174zm.087.377c-.019-.039-.048-.058-.087-.058a.478.478 0 00-.116.029c-.097.039-.145.106-.145.203.019.097.01.155-.029.174-.058.02-.184.145-.377.377a4.862 4.862 0 00-.377.493c-.058.155-.126.29-.203.406a1.314 1.314 0 00-.203.435 3.415 3.415 0 01-.145.522c-.039.155-.068.3-.087.435-.019.135-.048.27-.087.406-.077.251-.019.251.174 0 .039-.077.106-.184.203-.319.213-.348.338-.551.377-.609.097-.097.29-.416.58-.957.29-.56.445-.899.464-1.015 0-.077.019-.174.058-.29.058-.116.058-.193 0-.232zm.029 1.102c-.039 0-.087.068-.145.203-.174.367-.3.57-.377.609-.019 0-.039.048-.058.145 0 .097-.029.155-.087.174-.039 0-.068.039-.087.116 0 .058-.029.106-.087.145-.116.077-.29.329-.522.754a.637.637 0 00-.087.174c.019.097.097.029.232-.203.077-.135.155-.242.232-.319.077-.097.174-.242.29-.435.116-.193.232-.367.348-.522.097-.174.145-.27.145-.29.019-.039.048-.106.087-.203.058-.097.106-.184.145-.261.019-.058.01-.087-.029-.087zm-1.885.725c-.019-.02-.039-.01-.058.029a.278.278 0 00-.087.203v.058l.029-.058a.314.314 0 01.058-.116c.039-.039.058-.077.058-.116zm-.406.841v.058l.029.058c.019-.02.019-.048 0-.087l-.029-.029zm5.22 3.48c-.077-.02-.222-.02-.435 0-.193.02-.309.048-.348.087-.039.02-.019.048.058.087a.847.847 0 00.609-.058l.174-.116h-.058zm13.733-5.8c.097-.27.164-.406.203-.406.058-.02.155 0 .29.058a.424.424 0 01.203.145c.039.039.097.145.174.319.097.251.155.464.174.638.019.155.058.338.116.551a6.13 6.13 0 01.348 1.421.647.647 0 01.029.319.738.738 0 000 .29.674.674 0 01.029.348.547.547 0 00.029.319c.097.367.01.986-.261 1.856-.077.29-.106.464-.087.522.019.039.019.106 0 .203-.077.387-.155.628-.232.725a.496.496 0 00-.087.232c0 .039-.048.174-.145.406a2.49 2.49 0 01-.232.464 1.933 1.933 0 00-.145.29c-.058.116-.213.338-.464.667-.251.31-.425.503-.522.58a.824.824 0 00-.145.174c0 .039-.019.058-.058.058-.019 0-.039-.02-.058-.058 0-.058-.019-.077-.058-.058-.019.02-.01.048.029.087.039.039.039.087 0 .145a.398.398 0 01-.203.087c-.097 0-.155.02-.174.058 0 .039-.097.126-.29.261-.193.135-.309.193-.348.174-.077 0-.039-.058.116-.174.097-.058.213-.155.348-.29.155-.155.242-.251.261-.29 0-.039.048-.087.145-.145.155-.097.193-.174.116-.232-.077-.02-.203.087-.377.319a2.958 2.958 0 01-.348.348 1.154 1.154 0 00-.174.145.924.924 0 01-.087.116c-.058.077-.222.193-.493.348-.251.174-.483.3-.696.377-.425.174-.619.193-.58.058 0-.02.135-.116.406-.29.29-.174.474-.3.551-.377a8.01 8.01 0 001.073-.899c.174-.174.396-.425.667-.754.29-.348.435-.551.435-.609a.314.314 0 01.058-.116c.039-.02.106-.116.203-.29.116-.193.193-.329.232-.406.039-.058.087-.184.145-.377.058-.193.126-.338.203-.435.058-.116.155-.503.29-1.16.135-.677.213-1.17.232-1.479a13.207 13.207 0 000-1.769c-.019-.232-.097-.6-.232-1.102-.116-.522-.193-.783-.232-.783-.039 0-.097.097-.174.29a4.96 4.96 0 00-.145.348c-.135.213-.213.358-.232.435-.019.058-.068.106-.145.145-.077.039-.097.058-.058.058.039.02.058.068.058.145a.463.463 0 01-.058.203.782.782 0 01-.145.203c-.077.058-.184.184-.319.377s-.213.319-.232.377c-.039.193-.242.512-.609.957a3.24 3.24 0 01-.638.551c-.116.058-.29.058-.522 0-.232-.058-.396-.145-.493-.261-.193-.232-.329-.551-.406-.957-.019-.213.019-.648.116-1.305.116-.657.232-1.14.348-1.45.116-.348.271-.445.464-.29.077.058.097.184.058.377-.097.483-.135.793-.116.928.039.077 0 .377-.116.899-.097.503-.135.89-.116 1.16.039.251.077.387.116.406.116.097.396-.126.841-.667.503-.619.822-1.044.957-1.276.541-.87.938-1.624 1.189-2.262zm.058.609V11.053c.019-.02.029-.048.029-.087l-.029-.029zm.986 1.653c-.039 0-.058.029-.058.087.039.077.077.106.116.087a.262.262 0 00-.029-.116c0-.039-.01-.058-.029-.058zm.058.638c-.019 0-.039.058-.058.174v.667c0 .232-.029.551-.087.957-.039.406-.058.648-.058.725.019.077 0 .174-.058.29-.058.116-.097.31-.116.58-.019.367.01.493.087.377.019-.058.077-.31.174-.754.116-.445.184-.773.203-.986.077-.483.097-.841.058-1.073a1.866 1.866 0 010-.464.56.56 0 00-.058-.348c-.039-.097-.068-.145-.087-.145zm-.783 4.321h-.058v.029c0 .02.01.039.029.058h.058c0-.02-.01-.048-.029-.087zm-.377.899c.039-.077.039-.116 0-.116-.019-.02-.039 0-.058.058-.058.213-.358.657-.899 1.334-.251.31-.522.59-.812.841-.29.251-.59.483-.899.696l-.319.261c.039 0 .193-.077.464-.232.251-.155.522-.358.812-.609.29-.251.445-.406.464-.464 0-.02.077-.106.232-.261.174-.155.261-.251.261-.29.019-.058.106-.184.261-.377.213-.29.338-.483.377-.58.039-.097.077-.184.116-.261zm-.667 1.392c-.019-.02-.039-.029-.058-.029v.058c0 .058.019.087.058.087a.125.125 0 000-.116zm4.887-9.106c.502-.503.763-.754.783-.754.038 0 .096.039.174.116a.519.519 0 00.319.087c.232 0 .473.068.725.203.251.135.425.3.522.493.096.174.116.493.058.957-.02.174-.068.27-.145.29-.058.02-.078.058-.058.116.019.155-.116.435-.406.841a19.35 19.35 0 01-.319.464c-.29.445-.638.928-1.044 1.45-.329.387-.658.667-.986.841-.31.174-.561.213-.754.116-.136-.077-.281-.213-.435-.406a1.945 1.945 0 01-.261-.464c-.039-.174 0-.532.116-1.073.038-.174.145-.483.319-.928.193-.445.348-.754.464-.928.116-.213.174-.377.174-.493a.46.46 0 01.116-.29c.077-.097.29-.31.638-.638zm1.276-.261c-.039 0-.068.01-.087.029-.02 0-.029.01-.029.029.019.058-.02.116-.116.174a.388.388 0 01-.232.087c-.097.02-.155.029-.174.029-.155.02-.358.28-.609.783-.174.367-.329.744-.464 1.131a2.11 2.11 0 01-.174.406 5.578 5.578 0 00-.493 1.914c-.02.174 0 .261.058.261.077 0 .174-.048.29-.145.348-.251.792-.725 1.334-1.421.638-.831.957-1.286.957-1.363l.145-.203c.154-.193.261-.416.319-.667.077-.27.077-.493 0-.667-.078-.213-.271-.329-.58-.348a.482.482 0 00-.145-.029zm1.044 1.537c0-.039-.02-.058-.058-.058-.02-.02-.039-.01-.058.029a.12.12 0 000 .116c.019.02.038.029.058.029.038-.02.058-.058.058-.116zm-.551.522c-.02 0-.029.01-.029.029-.039.02-.3.348-.783.986-.484.638-.735.976-.754 1.015l.29-.232.058-.029c.058-.077.164-.222.319-.435.154-.213.241-.319.261-.319.038 0 .058-.02.058-.058 0-.039.029-.087.087-.145.058-.058.135-.155.232-.29.096-.135.164-.251.203-.348.058-.116.077-.174.058-.174zm-2.784.377h-.029c0-.02-.01-.02-.029 0-.02.02-.029.048-.029.087 0 .02.009.02.029 0 .038-.02.058-.048.058-.087zm2.755.145c.019-.058.009-.087-.029-.087-.02 0-.029.029-.029.087v.058c.019 0 .038-.02.058-.058zm-.232.319a.313.313 0 00-.058.087c-.02.058-.01.068.029.029.038-.058.048-.097.029-.116zm2.053-2.784c.078-.058.126-.087.145-.087.039 0 .107.02.203.058.194.058.232.145.116.261-.038.058-.058.193-.058.406l.029.29c.02 0 .029.29.029.87 0 .58.039 1.044.116 1.392.078.348.126.551.145.609.039.039.087.135.145.29.097.27.194.425.29.464.058.02.155-.029.29-.145.136-.116.261-.261.377-.435.155-.213.358-.56.609-1.044.252-.503.484-.928.696-1.276.213-.348.368-.57.464-.667.116-.097.232-.126.348-.087.058.02.145.01.261-.029.31-.077.687.087 1.131.493.368.348.551.6.551.754 0 .097.029.164.087.203.058.039.078.077.058.116 0 .039.029.087.087.145l.087.058c-.019-.116 0-.174.058-.174.039 0 .078.058.116.174a.706.706 0 01.058.261c-.019.116-.009.193.029.232.039.02.049.048.029.087 0 .02-.019.029-.058.029-.058 0-.29-.242-.696-.725-.696-.831-1.121-1.247-1.276-1.247-.019 0-.067.048-.145.145a9.028 9.028 0 00-.522.783l-.174.29a26.88 26.88 0 00-.464.87c-.232.483-.406.802-.522.957a2.745 2.745 0 00-.203.319c-.019.077-.096.145-.232.203a2.23 2.23 0 01-.261.116c-.077.039-.222.058-.435.058-.193-.02-.328-.058-.406-.116a.493.493 0 00-.232-.087c-.058 0-.203-.106-.435-.319-.212-.232-.357-.454-.435-.667-.174-.522-.261-1.237-.261-2.146 0-.619.02-1.034.058-1.247.039-.213.107-.358.203-.435zm3.799 1.16c-.019-.02-.048-.02-.087 0-.077.039-.299.367-.667.986-.367.619-.551.976-.551 1.073 0 .116.049.087.145-.087.02-.02.029-.048.029-.087.058-.116.116-.213.174-.29l.261-.435c.194-.367.368-.657.522-.87.155-.193.213-.29.174-.29zm-.638 1.624h-.029c-.038.02-.058.048-.058.087 0 .02.02.029.058.029.039 0 .058-.029.058-.087 0-.02-.009-.029-.029-.029zm4.65-9.338c.135 0 .28.087.435.261.077.077.116.232.116.464 0 .213-.029.532-.087.957-.058.425-.097.754-.116.986 0 .232-.019.377-.058.435a.765.765 0 00-.029.232c.019.058.019.232 0 .522-.019.29-.039.454-.058.493-.019.058-.029.319-.029.783.019.464.019.735 0 .812a.367.367 0 000 .203c.039.058.048.106.029.145-.039.058-.019.725.058 2.001.019.348 0 .58-.058.696-.019.077-.029.338-.029.783.019.445.01.686-.029.725-.039.02-.068.01-.087-.029-.019-.039-.048-.232-.087-.58a10.153 10.153 0 00-.058-.754 80.811 80.811 0 01-.087-.754 25.335 25.335 0 00-.145-1.305 74.04 74.04 0 01-.087-1.624c-.039-.831-.048-1.286-.029-1.363.039-.077.048-.222.029-.435 0-.213.01-.425.029-.638.039-.232.058-.387.058-.464 0-.077.01-.222.029-.435.097-.812.145-1.382.145-1.711.019-.251.048-.387.087-.406h.058zm-.174 13.34c.077-.02.145 0 .203.058.135.116.126.222-.029.319-.097.058-.164.232-.203.522a.393.393 0 01-.087.203c-.039.02-.058.058-.058.116a.463.463 0 01-.058.203c-.077.174-.135.425-.174.754-.019.31-.01.532.029.667a.557.557 0 01.029.174.487.487 0 01.029.145c0 .02-.01.029-.029.029-.039 0-.106-.048-.203-.145-.077-.116-.126-.377-.145-.783-.019-.89.106-1.547.377-1.972.097-.174.203-.27.319-.29zM1.7 26.02a.3.3 0 00.32.28l2.694-.174a.3.3 0 00-.04-.599l-2.394.155-.155-2.395a.3.3 0 10-.598.038L1.7 26.02zm45.043-12.175c-2.836 4.686-6.112 6.723-9.646 7.431-3.56.714-7.41.087-11.419-.634-3.987-.716-8.126-1.524-12.177-1.104-4.072.421-8.049 2.08-11.727 6.264l.451.396c3.573-4.065 7.408-5.657 11.337-6.064 3.95-.408 7.998.378 12.01 1.099 3.991.717 7.954 1.371 11.643.632 3.716-.745 7.128-2.895 10.041-7.71l-.513-.31z" fill="#281C13"/></svg>