<svg width="24" height="24" viewBox="0 0 24 24" fill="none" xmlns="http://www.w3.org/2000/svg">
<g clip-path="url(#clip0)">
<path d="M12 23.9994C18.6274 23.9994 24 18.6268 24 11.9994C24 5.37197 18.6274 -0.000610352 12 -0.000610352C5.37258 -0.000610352 0 5.37197 0 11.9994C0 18.6268 5.37258 23.9994 12 23.9994Z" fill="#007AB9"/>
<path d="M19.1698 12.9652V17.9126H16.3014V13.2968C16.3014 12.1378 15.8873 11.3463 14.8488 11.3463C14.0562 11.3463 13.5854 11.8792 13.3775 12.3951C13.302 12.5795 13.2825 12.8356 13.2825 13.0942V17.9124H10.4139C10.4139 17.9124 10.4525 10.0947 10.4139 9.28552H13.2827V10.508C13.2769 10.5176 13.2688 10.5271 13.2637 10.5363H13.2827V10.508C13.6639 9.92148 14.3437 9.08295 15.8678 9.08295C17.755 9.08295 19.1698 10.3159 19.1698 12.9652ZM7.4132 5.12708C6.43199 5.12708 5.79004 5.77117 5.79004 6.6174C5.79004 7.44567 6.41338 8.10837 7.37555 8.10837H7.39416C8.39462 8.10837 9.01668 7.44567 9.01668 6.6174C8.99764 5.77117 8.39462 5.12708 7.4132 5.12708ZM5.96053 17.9126H8.82801V9.28552H5.96053V17.9126Z" fill="white"/>
</g>
<defs>
<clipPath id="clip0">
<rect width="24" height="24" fill="white"/>
</clipPath>
</defs>
</svg>
