<svg width="18" height="18" viewBox="0 0 18 18" fill="none" xmlns="http://www.w3.org/2000/svg">
<path d="M17.6 9C17.6 13.7496 13.7496 17.6 9 17.6C4.25035 17.6 0.4 13.7496 0.4 9C0.4 4.25035 4.25035 0.4 9 0.4C13.7496 0.4 17.6 4.25035 17.6 9Z" stroke="#D65C00" stroke-width="0.8"/>
<path d="M13.9641 9.66836V13.0934H11.9783V9.8979C11.9783 9.09553 11.6916 8.54759 10.9726 8.54759C10.4239 8.54759 10.098 8.91649 9.95401 9.27369C9.90173 9.40134 9.88825 9.57861 9.88825 9.75766V13.0933H7.90234C7.90234 13.0933 7.92899 7.6811 7.90234 7.12087H9.8884V7.96722C9.8844 7.97388 9.87878 7.9804 9.87522 7.98676H9.8884V7.96722C10.1523 7.56114 10.6229 6.98062 11.6781 6.98062C12.9846 6.98062 13.9641 7.83423 13.9641 9.66836ZM5.8249 4.24194C5.1456 4.24194 4.70117 4.68785 4.70117 5.27371C4.70117 5.84712 5.13271 6.30591 5.79883 6.30591H5.81172C6.50434 6.30591 6.935 5.84712 6.935 5.27371C6.92182 4.68785 6.50434 4.24194 5.8249 4.24194ZM4.8192 13.0934H6.80438V7.12087H4.8192V13.0934Z" fill="#D65C00"/>
</svg>
