<svg width="46" height="46" viewBox="0 0 46 46" fill="none" xmlns="http://www.w3.org/2000/svg">
<circle cx="23" cy="23" r="22" stroke="#D65C00" stroke-width="2"/>
<path d="M22.2927 15.5H25.8427L25.1677 27.475H22.9677L22.2927 15.5ZM22.6927 32.575C22.3427 32.2083 22.1677 31.7583 22.1677 31.225C22.1677 30.6917 22.3427 30.25 22.6927 29.9C23.0593 29.5333 23.5177 29.35 24.0677 29.35C24.6177 29.35 25.0677 29.5333 25.4177 29.9C25.7843 30.25 25.9677 30.6917 25.9677 31.225C25.9677 31.7583 25.7843 32.2083 25.4177 32.575C25.0677 32.925 24.6177 33.1 24.0677 33.1C23.5177 33.1 23.0593 32.925 22.6927 32.575Z" fill="#D65C00"/>
</svg>
