<svg width="9" height="9" viewBox="0 0 9 9" fill="none" xmlns="http://www.w3.org/2000/svg">
<circle cx="4.09961" cy="4.09985" r="4" fill="#AB815B" fill-opacity="0.27"/>
<path d="M3.8092 5.02132C3.81827 4.66698 4.10072 4.44378 4.40027 4.18414C4.79396 3.8501 5.14013 3.53526 5.12575 2.96545C5.11091 2.37763 4.72007 2.11141 4.06028 2.12806C3.59243 2.13987 3.24817 2.29261 3.10034 2.38037L3.39393 3.54933C3.67027 2.84613 4.04507 2.47656 4.28499 2.4705C4.36896 2.46838 4.42401 2.50901 4.42688 2.62297C4.434 2.90488 4.07272 3.33413 3.83406 3.62825C3.64788 3.86102 3.50907 4.06859 3.51558 4.32651C3.52073 4.53044 3.6226 4.76195 3.8092 5.02132ZM3.86811 6.1662C4.17401 6.15848 4.37819 5.92525 4.37168 5.66733C4.36517 5.40942 4.14949 5.18679 3.84359 5.19451C3.54368 5.20208 3.3455 5.43515 3.35201 5.69307C3.35852 5.95099 3.56821 6.17377 3.86811 6.1662Z" fill="#FEFBF7"/>
</svg>
