<svg width="15" height="15" viewBox="0 0 15 15" fill="none" xmlns="http://www.w3.org/2000/svg">
<path d="M7.5 0.9C6.19465 0.9 4.9186 1.28708 3.83324 2.0123C2.74787 2.73752 1.90194 3.7683 1.4024 4.97429C0.90286 6.18028 0.772158 7.50732 1.02682 8.78759C1.28148 10.0679 1.91007 11.2439 2.8331 12.1669C3.75612 13.0899 4.93213 13.7185 6.21241 13.9732C7.49268 14.2278 8.81972 14.0971 10.0257 13.5976C11.2317 13.0981 12.2625 12.2521 12.9877 11.1668C13.7129 10.0814 14.1 8.80536 14.1 7.5C14.1 5.74957 13.4046 4.07083 12.1669 2.8331C10.9292 1.59536 9.25043 0.9 7.5 0.9ZM7.5 13.5632C6.30081 13.5632 5.12855 13.2076 4.13146 12.5414C3.13437 11.8751 2.35723 10.9282 1.89832 9.82029C1.43941 8.71238 1.31934 7.49327 1.55329 6.31712C1.78724 5.14098 2.36471 4.06062 3.21266 3.21266C4.06062 2.36471 5.14098 1.78724 6.31713 1.55329C7.49328 1.31934 8.71239 1.43941 9.82029 1.89832C10.9282 2.35723 11.8751 3.13437 12.5414 4.13146C13.2076 5.12855 13.5632 6.30081 13.5632 7.5C13.5632 9.10806 12.9244 10.6503 11.7873 11.7873C10.6503 12.9244 9.10807 13.5632 7.5 13.5632Z" fill="#D60000" stroke="#D60000" stroke-width="0.2"/>
<path d="M8.25143 5.311H8.96543L8.62943 5.836L7.85243 7.054L8.67843 8.349L9.09843 9H8.39143L8.09043 8.538L7.49543 7.607L6.90743 8.538L6.60643 9H5.89943L6.31943 8.349L7.14543 7.054L6.36843 5.836L6.03243 5.311H6.74643L7.04743 5.78L7.49543 6.494L7.95043 5.78L8.25143 5.311Z" fill="#D60000"/>
</svg>
