<svg width="48" height="11" viewBox="0 0 48 11" fill="none" xmlns="http://www.w3.org/2000/svg">
<path d="M25.5498 8.06473L25.7175 7.59368L25.5498 8.06473ZM47.4804 4.75317C47.5693 4.49173 47.4294 4.20772 47.168 4.11881L42.9076 2.66994C42.6462 2.58103 42.3622 2.72089 42.2733 2.98233C42.1843 3.24377 42.3242 3.52778 42.5856 3.61669L46.3726 4.90458L45.0848 8.69157C44.9958 8.95301 45.1357 9.23702 45.3971 9.32593C45.6586 9.41484 45.9426 9.27498 46.0315 9.01354L47.4804 4.75317ZM1.17911 6.85549C7.73286 5.39808 11.5919 5.05532 14.8871 5.44437C18.1951 5.83492 20.96 6.96179 25.3821 8.53578L25.7175 7.59368C21.3575 6.04182 18.4546 4.85862 15.0044 4.45127C11.5414 4.04242 7.55176 4.41392 0.962032 5.87933L1.17911 6.85549ZM25.3821 8.53578C29.8632 10.1308 33.5023 10.167 36.9527 9.33415C40.3741 8.5083 43.6014 6.82658 47.2279 5.04075L46.7861 4.14363C43.1159 5.95102 40.0057 7.5685 36.7181 8.36207C33.4596 9.14862 30.0185 9.12456 25.7175 7.59368L25.3821 8.53578Z" fill="#D96433" fill-opacity="0.8"/>
</svg>
